<?xml version="1.0" standalone="no"?>
<!DOCTYPE svg PUBLIC "-//W3C//DTD SVG 20010904//EN"
 "http://www.w3.org/TR/2001/REC-SVG-20010904/DTD/svg10.dtd">
<svg version="1.0" xmlns="http://www.w3.org/2000/svg"
 width="942.000000pt" height="942.000000pt" viewBox="0 0 942.000000 942.000000"
 preserveAspectRatio="xMidYMid meet">
<metadata>
Created by potrace 1.14, written by Peter Selinger 2001-2017
</metadata>
<g transform="translate(0.000000,942.000000) scale(0.100000,-0.100000)"
fill="#000000" stroke="none">
<path d="M0 4710 l0 -4710 4710 0 4710 0 0 4710 0 4710 -4710 0 -4710 0 0
-4710z m4097 2634 c15 -11 39 -36 51 -55 20 -28 23 -44 20 -92 -5 -65 -26
-101 -79 -132 -28 -16 -52 -20 -129 -20 -103 0 -144 15 -182 65 -40 54 -35
148 9 201 42 49 75 59 185 57 80 -3 101 -7 125 -24z m-1049 -226 l-3 -143
-247 -3 -248 -2 0 -755 0 -755 -160 0 -160 0 0 755 0 755 -245 0 -245 0 0 145
0 145 655 0 656 0 -3 -142z m2293 -269 c62 -21 123 -98 143 -181 3 -16 10 -28
14 -28 4 0 15 28 25 62 31 104 104 158 218 158 133 0 237 -93 268 -238 7 -36
11 -235 11 -607 l0 -555 -140 0 -140 0 0 535 c0 470 -2 539 -16 575 -36 89
-154 93 -201 7 -17 -29 -18 -78 -21 -574 l-3 -543 -109 0 -110 0 0 533 c0 501
-2 534 -19 574 -30 65 -98 91 -160 59 -56 -30 -56 -23 -59 -618 l-3 -548 -139
0 -140 0 2 688 3 687 125 0 125 0 3 -97 c1 -54 7 -98 12 -98 6 0 10 10 10 23
0 32 43 118 73 145 50 47 154 65 228 41z m1704 -4 c166 -35 310 -137 374 -263
51 -101 61 -157 61 -344 l0 -168 -441 0 -442 0 6 -87 c8 -120 22 -159 82 -218
60 -60 101 -75 213 -75 106 0 174 23 231 77 l45 43 148 0 c101 0 148 -3 148
-11 0 -6 -13 -39 -30 -74 -59 -124 -202 -229 -370 -271 -86 -22 -271 -22 -364
0 -165 39 -287 131 -355 266 -56 112 -64 174 -59 472 4 233 6 258 28 316 81
225 279 349 560 351 52 0 127 -6 165 -14z m-2905 -550 l0 -545 200 0 200 0 0
-145 0 -145 -595 0 -595 0 0 145 0 145 245 0 245 0 0 400 0 400 -215 0 -215 0
0 145 0 145 365 0 365 0 0 -545z m543 -1502 l107 -6 11 -39 c7 -28 7 -49 -1
-73 l-11 -33 -122 -7 c-67 -3 -845 -5 -1728 -3 -1510 3 -1606 4 -1623 20 -9
10 -20 33 -23 52 -5 30 -1 40 25 66 l30 30 1615 0 c887 0 1662 -3 1720 -7z
m-2150 -758 c92 -16 201 -65 273 -123 87 -69 166 -208 181 -318 l6 -44 -156 0
-155 0 -17 49 c-17 53 -83 123 -133 142 -151 58 -323 15 -389 -98 l-28 -48 -3
-449 c-3 -503 -2 -512 65 -581 59 -60 113 -80 218 -80 81 0 96 3 144 30 101
56 132 120 139 293 l5 122 -162 0 -161 0 0 135 0 135 315 0 315 0 0 -258 c0
-286 -11 -360 -67 -465 -65 -119 -201 -218 -351 -253 -90 -22 -267 -22 -352 0
-209 53 -347 178 -407 371 -16 55 -18 102 -18 530 0 519 0 516 67 649 103 203
384 313 671 261z m1612 -38 c102 -36 157 -68 223 -131 61 -57 92 -106 124
-192 31 -85 31 -283 0 -368 -45 -123 -140 -230 -251 -283 l-58 -28 178 -375
c98 -206 178 -378 178 -383 1 -4 -77 -6 -171 -5 l-173 3 -160 355 -161 355
-117 3 -117 3 0 -361 0 -360 -155 0 -155 0 0 901 0 900 368 -3 367 -3 80 -28z
m1785 -102 l0 -135 -190 0 -190 0 0 -630 0 -630 190 0 190 0 0 -135 0 -135
-540 0 -540 0 0 135 0 135 190 0 190 0 0 630 0 630 -190 0 -190 0 0 135 0 135
540 0 540 0 0 -135z m1104 120 c165 -35 314 -140 383 -270 68 -129 68 -133 68
-620 l0 -440 -27 -73 c-56 -155 -139 -251 -272 -316 -119 -58 -183 -66 -546
-66 l-320 0 0 900 0 900 323 0 c243 0 339 -4 391 -15z"/>
<path d="M6784 6592 c-66 -23 -97 -44 -128 -85 -28 -37 -56 -131 -56 -189 l0
-38 291 0 292 0 -7 58 c-15 128 -63 204 -155 245 -65 29 -172 33 -237 9z"/>
<path d="M3640 3479 l0 -281 178 4 c160 3 182 6 230 27 125 56 181 200 136
352 -20 67 -97 148 -160 167 -26 7 -106 12 -213 12 l-171 0 0 -281z"/>
<path d="M6640 3130 l0 -610 148 0 c188 0 235 12 302 80 78 77 80 90 80 530 0
440 -2 453 -80 530 -67 68 -114 80 -302 80 l-148 0 0 -610z"/>
</g>
</svg>
