<?xml version="1.0" standalone="no"?>
<!DOCTYPE svg PUBLIC "-//W3C//DTD SVG 20010904//EN"
 "http://www.w3.org/TR/2001/REC-SVG-20010904/DTD/svg10.dtd">
<svg version="1.0" xmlns="http://www.w3.org/2000/svg"
 width="942.000000pt" height="942.000000pt" viewBox="0 0 942.000000 942.000000"
 preserveAspectRatio="xMidYMid meet">
<metadata>
Created by potrace 1.11, written by Peter Selinger 2001-2013
</metadata>
<g transform="translate(0.000000,942.000000) scale(0.100000,-0.100000)"
fill="#000000" stroke="none">
<path d="M0 4710 l0 -4710 4710 0 4710 0 0 4710 0 4710 -4710 0 -4710 0 0
-4710z m2370 2170 l0 -170 -295 0 -295 0 0 -910 0 -910 -190 0 -190 0 0 910 0
910 -295 0 -295 0 0 170 0 170 780 0 780 0 0 -170z m1520 5 l0 -165 -230 0
-230 0 0 -750 0 -750 230 0 230 0 0 -165 0 -165 -650 0 -650 0 0 165 0 165
230 0 230 0 0 750 0 750 -230 0 -230 0 0 165 0 165 650 0 650 0 0 -165z m1818
-213 c81 -247 130 -417 145 -494 13 -72 26 -118 33 -118 7 0 17 29 23 68 26
144 45 219 149 562 l107 355 223 3 222 2 0 -1080 0 -1080 -165 0 -165 0 0 758
c0 683 2 776 20 947 11 105 20 191 20 193 0 1 -9 2 -20 2 -21 0 -19 7 -65
-189 -15 -63 -69 -258 -121 -434 -52 -176 -94 -322 -94 -323 0 -2 -63 -4 -140
-4 l-139 0 -35 113 c-20 61 -63 200 -96 307 -33 107 -79 270 -102 363 -36 145
-44 167 -61 167 -16 0 -18 -5 -13 -33 30 -161 36 -332 36 -1089 l0 -778 -165
0 -165 0 0 1080 0 1080 223 0 222 0 123 -378z m2462 213 l0 -165 -480 0 -480
0 0 -280 0 -280 425 0 425 0 0 -160 0 -160 -425 0 -425 0 0 -310 0 -310 480 0
480 0 0 -165 0 -165 -665 0 -665 0 0 1080 0 1080 665 0 665 0 0 -165z m-6780
-3300 l0 -905 470 0 470 0 0 -175 0 -175 -655 0 -655 0 0 1080 0 1080 185 0
185 0 0 -905z m2520 740 l0 -165 -480 0 -480 0 2 -277 3 -278 423 -3 422 -2 0
-160 0 -160 -422 -2 -423 -3 -3 -307 -2 -308 480 0 480 0 0 -165 0 -165 -665
0 -665 0 0 1080 0 1080 665 0 665 0 0 -165z m1600 -5 l0 -170 -492 -2 -493 -3
-3 -277 -2 -278 455 0 455 0 0 -170 0 -170 -450 0 -450 0 0 -460 0 -460 -190
0 -190 0 0 1080 0 1080 680 0 680 0 0 -170z m1720 0 l0 -170 -297 -2 -298 -3
-3 -907 -2 -908 -185 0 -185 0 0 910 0 910 -295 0 -295 0 0 170 0 170 780 0
780 0 0 -170z"/>
</g>
</svg>
